<svg width="35" height="35" viewBox="0 0 500 500" xmlns="http://www.w3.org/2000/svg">
  <path fill="#0073F3" d="M495 250C495 114.7 385.3 5 250 5S5 114.7 5 250c0 122.3 89.6 223.6 206.7 242V320.8h-62.2V250h62.2v-54c0-61.4 36.6-95.3 92.5-95.3 26.8 0 54.8 4.8 54.8 4.8v60.3h-30.9c-30.4 0-39.9 18.9-39.9 38.3v46h67.9l-10.9 70.8h-57.1V492C405.4 473.6 495 372.3 495 250z"/>
  <path fill="#FFF" d="m345.4 320.8 10.9-70.8h-67.9v-46c0-19.4 9.5-38.3 39.9-38.3h30.9v-60.3s-28-4.8-54.8-4.8c-56 0-92.5 33.9-92.5 95.3v54h-62.2v70.8h62.2V492c12.5 2 25.3 3 38.3 3s25.8-1 38.3-3V320.8h56.9z"/>
</svg>
