<svg width="35" height="35" xmlns="http://www.w3.org/2000/svg">
  <circle cx="17.5" cy="17.5" r="17.5" fill="#F4306D"/>
  <g transform="translate(8.75 8.75)" fill="#FFF">
    <path d="M12.297 0A5.2 5.2 0 0 1 17.5 5.203v7.094a5.2 5.2 0 0 1-5.203 5.203H5.203A5.2 5.2 0 0 1 0 12.297V5.203A5.2 5.2 0 0 1 5.203 0h7.094zm-.11 1.584H5.313a3.73 3.73 0 0 0-3.728 3.728v6.876a3.73 3.73 0 0 0 3.728 3.728h6.876a3.73 3.73 0 0 0 3.728-3.728V5.312a3.73 3.73 0 0 0-3.728-3.728z"/>
    <path d="M8.75 4.3a4.45 4.45 0 1 1 0 8.9 4.45 4.45 0 0 1 0-8.9zm0 1.584a2.866 2.866 0 1 0 0 5.732 2.866 2.866 0 0 0 0-5.732z"/>
    <circle cx="13.351" cy="4.073" r="1.056"/>
  </g>
</svg>
