<svg width="35" height="35" xmlns="http://www.w3.org/2000/svg" viewBox="0 0 500 500">
  <circle fill="#262626" cx="250" cy="250" r="245"/>
  <path fill="#FFF" d="M184.6 348.3c.3.3.6.5.9.8 2.7 1.9 4.7 4.7 7.3 6.8 8.1 6.5 17.1 10 27.5 10.6 24.6 1.5 46.1-17 48.9-41.3.1-1.2.1-2.4.1-3.6V101.7c0-4.9 0-4.9 4.9-4.9h33.4c1 0 2.1-.2 3.1.5.1.1.1.1.2.1.5.6.7 1.3.8 2 4.3 19.8 14.7 35.5 31 47.4 1 .7 1.9 1.7 2.8 2.5l2.1 1.8c2.6 1.5 4.5 3.9 6.8 5.8 9 7.5 19.2 12.7 30.5 15.6 1 .3 2.1.2 2.9 1.2l.2.2c.7.7.6 1.6.6 2.4v38.8c0 3-.4 3.1-3.4 3.1-9.5 0-18.8-1.3-28-3.4-15.8-3.6-30.4-10-43.9-18.9-.7-.5-1.5-1.5-2.2-1.1-1 .4-.5 1.7-.5 2.5 0 36.4.1 72.8-.1 109.1-.1 25.4-8.2 48.2-24.9 67.6-17.7 20.6-40.2 32.5-67.1 35.8-20.8 2.5-40.5-1.2-59.2-10.5-3-1.5-5.9-3.2-8.6-5.3-.9-.8-1.7-1.5-2.6-2.3-6.5-5.3-10.9-12.2-15.1-19.3-6.5-10.9-10.6-22.6-12.7-35.1-1.2-7.1-1.8-14.3-1.4-21.6 1.3-23.3 9.1-44.1 24.1-62 12.6-15.1 28.3-25.6 46.9-31.9 7.7-2.6 15.7-4.3 23.9-4.9 1.5-.1 3-.5 4.6-.4.7 0 1.5 0 2.1.5l.2.2c.4.7.3 1.5.3 2.3v40.7c-.1 1.3-.7 1.8-2 1.4-3.6-1-7.3-1.5-11-1.7-5.8-.3-11.4.5-16.8 2.5-18 6.7-29 19.6-31.2 38.6-2.3 18.7 5.1 33.7 20.7 44.5 1.4 1 2.7 1.8 3.9 2.8z"/>
  <path fill="#EC1655" d="M150.7 394c.7-.2 1.1.4 1.6.7 11.7 7.1 24.4 11.8 37.9 14 6.8 1.1 13.7 1.6 20.6 1.2 23.1-1.2 43.7-8.9 61.5-23.6 17.2-14.2 28.6-32.1 34.3-53.7 1.8-6.8 2.8-13.7 3.2-20.8.2-4 .2-8.1.2-12.1V193.3c.9-.2 1.3.4 1.8.8 12.3 8.4 25.7 14.7 40.1 18.7 7.9 2.2 16 3.6 24.2 4.4 3.4.3 6.9.3 10.3.5 1.5.1 1.5.1 1.5-1.5V176c0-.7 0-1.5.1-2.2 3.1.3 6.1 1 9.2 1.2 1.9.1 3.8.3 5.8.3 1 0 1.4.3 1.2 1.3v53.1c0 1.5 0 1.5-1.6 1.5-5.3 0-10.6-.4-15.9-1.1-10.7-1.4-21.2-4-31.3-8-9.7-3.8-18.8-8.6-27.3-14.5-.5-.4-1.1-.7-1.9-1.2v113.5c0 19.7-5.1 38.1-15.7 54.8-12.7 20.2-30.4 34.4-52.8 42.6-13.6 5-27.7 6.8-42.2 5.8-24.4-1.8-45.6-11.1-63.5-27.7-.5-.4-.9-.9-1.3-1.4z"/>
  <path fill="#0CBAC6" d="M310.6 97.2c-.7 0-1.4.1-2.2.1h-35.8c-2.8 0-2.8 0-2.8 2.7v218.7c0 5.1-.4 10.1-2 14.9-5.6 17.1-17 28.3-34.5 32.3-18.8 4.3-34.7-1.4-47.4-16-.2-.2-.4-.5-.5-.8 3.6 1.4 7.2 2.9 11.1 3.7 12.2 2.4 23.8.6 34.4-6 12.3-7.6 19.5-18.6 22-32.8.5-2.7.6-5.4.6-8.1V86.8c0-3.4-.5-3 2.9-3h51.7c1.7 0 1.8 0 1.7 1.8.1 3.9.1 7.8.8 11.6z"/>
  <path fill="#0CBAC6" d="M220.5 217c-10.3.3-20.4 2-30.1 5.2-14.1 4.7-26.7 12.1-37.6 22.2-14.4 13.2-24.2 29.3-29.5 48.1-1.9 6.7-3 13.5-3.5 20.5-.3 4.2-.4 8.3-.2 12.5.6 11.6 3 22.8 7.4 33.5 4.9 12 11.8 22.7 20.7 32.2.2.2.3.4.4.6-2-.9-3.7-2.4-5.4-3.7-16.7-13.2-28.5-29.9-35-50.3-2.3-7.1-3.7-14.3-4.3-21.7-.5-5.4-.6-10.7-.2-16.1.8-12.3 3.7-24.2 8.8-35.4 5.3-11.8 12.6-22.2 21.8-31.3 10.7-10.5 23.2-18.4 37.4-23.5 8.9-3.2 18-5.1 27.5-5.8 6.8-.5 13.6-.3 20.4.5.9.1 1.5.3 1.4 1.4V217z"/>
  <path fill="#EC1655" d="M184.6 348.3c-4.2-1.9-7.7-4.6-11-7.7-8.2-7.9-13-17.5-14.3-28.7-2.6-23.7 12.3-44.1 33-50.4 8.8-2.7 17.7-2.8 26.6-.4.5.1 1 .3 1.5.2.3-.7.1-1.4.1-2.2v-39.8c0-.7.1-1.4.1-2.2 5.1-.3 10.2.1 15.3.7.8.1 1 .5 1 1.2v53.9c0 .6.2 1.3-.2 2-2.3-.4-4.6-1.1-6.9-1.5-13.6-1.9-25.8 1.3-36.5 9.7-9.4 7.4-15.3 17.2-17.2 29.1-2.1 12.6.5 24.2 7.8 34.8.2.4.4.9.7 1.3zm160.9-199c-5.1-3-9.6-6.8-13.7-11.1-11-11.4-18-24.8-21-40.4v-.4c4.8-.3 9.5 0 14.3-.1.8 0 1.2.3 1.1 1.2v1c-.2 13.4 3.7 25.6 10.2 37 2.3 4.1 5.1 7.9 8.1 11.5.5.4.9.7 1 1.3z"/>
  <path fill="#0CBAC6" d="M387.8 173.7c-13.6-2.9-25.5-9-35.9-18.2-1.5-1.4-3.1-2.7-4.3-4.4.5-.1.9.3 1.3.5 8.2 4.7 17 7.8 26.4 9.3 3.6.6 7.3 1 11 1 1.5 0 1.6 0 1.6 1.5 0 3.4-.1 6.8-.1 10.3z"/>
</svg>
