<svg width="50" height="30" viewBox="0 0 50 30" fill="none" xmlns="http://www.w3.org/2000/svg">
<rect width="50" height="30" fill="white"/>
<path d="M21.5872 10.6818L17.8737 19.3408H15.4509L13.6235 12.4305C13.5125 12.0049 13.4161 11.849 13.0786 11.6696C12.5278 11.3776 11.618 11.1035 10.8176 10.9335L10.872 10.6818H14.7719C15.269 10.6818 15.7159 11.0052 15.8288 11.5647L16.7939 16.5752L19.1792 10.6817H21.5872V10.6818ZM31.0801 16.5137C31.0898 14.2284 27.8465 14.1025 27.8688 13.0815C27.8758 12.7708 28.1785 12.4405 28.8411 12.3562C29.1695 12.3142 30.0743 12.2821 31.1006 12.7437L31.5032 10.9075C30.9517 10.7118 30.2421 10.5236 29.3593 10.5236C27.0938 10.5236 25.4995 11.7005 25.4861 13.3859C25.4715 14.6325 26.6241 15.3281 27.4924 15.7423C28.3857 16.1665 28.6855 16.4391 28.6821 16.8185C28.6757 17.3994 27.9696 17.6558 27.3097 17.6659C26.1577 17.6832 25.4892 17.3613 24.9563 17.1191L24.5409 19.0161C25.0764 19.2562 26.0649 19.4657 27.0897 19.4763C29.4976 19.4763 31.0727 18.3139 31.0801 16.5137ZM37.0623 19.3408H39.182L37.3317 10.6818H35.3752C34.9352 10.6818 34.5641 10.9322 34.3999 11.3171L30.9605 19.3408H33.3672L33.845 18.0475H36.7856L37.0623 19.3408ZM34.5049 16.2728L35.7113 13.0216L36.4056 16.2728H34.5049ZM24.8619 10.6818L22.9667 19.3408H20.6748L22.5708 10.6818H24.8619Z" fill="#1434CB"/>
</svg>
